<?xml version="1.0" encoding="UTF-8"?>
<svg id="Layer_2" data-name="Layer 2" xmlns="http://www.w3.org/2000/svg" viewBox="0 0 654.08 307.5">
  <defs>
    <style>
      .cls-1 {
        fill: #173167;
        stroke: #173167;
        stroke-miterlimit: 10;
      }
    </style>
  </defs>
  <g id="RIVENFI.logo">
    <g id="Rectangle.group.4">
      <g>
        <rect id="Rectangle.1" class="cls-1" x="347.39" y="90.88" width="63.06" height="63.06" rx="15.62" ry="15.62"/>
        <path class="cls-1" d="m394.83,154.44h-31.82c-8.89,0-16.12-7.23-16.12-16.12v-31.82c0-8.89,7.23-16.12,16.12-16.12h31.82c8.89,0,16.12,7.23,16.12,16.12v31.82c0,8.89-7.23,16.12-16.12,16.12Zm-31.82-63.06c-8.34,0-15.12,6.78-15.12,15.12v31.82c0,8.34,6.78,15.12,15.12,15.12h31.82c8.34,0,15.12-6.78,15.12-15.12v-31.82c0-8.34-6.78-15.12-15.12-15.12h-31.82Z"/>
      </g>
      <g>
        <rect id="Rectangle.2" class="cls-1" x="481.32" y="27.83" width="63.06" height="63.06" rx="15.62" ry="15.62" transform="translate(178.05 452.35) rotate(-56.17)"/>
        <path class="cls-1" d="m517.17,97.55c-3.16,0-6.25-.93-8.94-2.73l-26.43-17.71c-7.38-4.95-9.37-14.98-4.42-22.37l17.71-26.43c4.95-7.38,14.98-9.37,22.37-4.42l26.43,17.71c7.38,4.95,9.37,14.98,4.42,22.36l-17.71,26.43c-2.4,3.58-6.04,6.01-10.27,6.84-1.05.21-2.11.31-3.16.31Zm-8.66-75.39c-4.88,0-9.67,2.35-12.58,6.7l-17.71,26.43c-4.64,6.93-2.78,16.34,4.14,20.98l26.43,17.71c6.93,4.64,16.33,2.78,20.98-4.14l17.71-26.43.42.28-.42-.28c4.64-6.92,2.78-16.34-4.14-20.98l-26.43-17.71c-2.58-1.73-5.5-2.55-8.39-2.55Z"/>
      </g>
      <g>
        <rect id="Rectangle.3" class="cls-1" x="590.02" y="1" width="63.06" height="63.06" rx="15.62" ry="15.62"/>
        <path class="cls-1" d="m637.46,64.56h-31.82c-8.89,0-16.12-7.23-16.12-16.12v-31.82c0-8.89,7.23-16.12,16.12-16.12h31.82c8.89,0,16.12,7.23,16.12,16.12v31.82c0,8.89-7.23,16.12-16.12,16.12Zm-31.82-63.06c-8.34,0-15.12,6.78-15.12,15.12v31.82c0,8.34,6.78,15.12,15.12,15.12h31.82c8.34,0,15.12-6.78,15.12-15.12v-31.82c0-8.34-6.78-15.12-15.12-15.12h-31.82Z"/>
      </g>
      <g>
        <rect id="Rectangle.4" class="cls-1" x="347.39" y="166.85" width="63.06" height="63.06" rx="15.62" ry="15.62"/>
        <path class="cls-1" d="m394.83,230.41h-31.82c-8.89,0-16.12-7.23-16.12-16.12v-31.82c0-8.89,7.23-16.12,16.12-16.12h31.82c8.89,0,16.12,7.23,16.12,16.12v31.82c0,8.89-7.23,16.12-16.12,16.12Zm-31.82-63.06c-8.34,0-15.12,6.78-15.12,15.12v31.82c0,8.34,6.78,15.12,15.12,15.12h31.82c8.34,0,15.12-6.78,15.12-15.12v-31.82c0-8.34-6.78-15.12-15.12-15.12h-31.82Z"/>
      </g>
      <g>
        <rect id="Rectangle.5" class="cls-1" x="423.05" y="166.85" width="63.06" height="63.06" rx="15.62" ry="15.62"/>
        <path class="cls-1" d="m470.48,230.41h-31.82c-8.89,0-16.12-7.23-16.12-16.12v-31.82c0-8.89,7.23-16.12,16.12-16.12h31.82c8.89,0,16.12,7.23,16.12,16.12v31.82c0,8.89-7.23,16.12-16.12,16.12Zm-31.82-63.06c-8.34,0-15.12,6.78-15.12,15.12v31.82c0,8.34,6.78,15.12,15.12,15.12h31.82c8.34,0,15.12-6.78,15.12-15.12v-31.82c0-8.34-6.78-15.12-15.12-15.12h-31.82Z"/>
      </g>
      <g>
        <rect id="Rectangle.6" class="cls-1" x="532.87" y="127.63" width="63.06" height="63.06" rx="15.62" ry="15.62" transform="translate(14.22 362.09) rotate(-36)"/>
        <path class="cls-1" d="m560.91,197.51c-.85,0-1.7-.07-2.56-.2-4.25-.67-7.99-2.96-10.52-6.45l-18.7-25.74c-2.53-3.48-3.55-7.74-2.88-12,.67-4.25,2.96-7.99,6.45-10.52l25.74-18.7c3.48-2.53,7.74-3.55,12-2.88,4.25.67,7.99,2.96,10.52,6.45l18.7,25.74c5.22,7.19,3.62,17.29-3.57,22.52l-25.74,18.7c-2.78,2.02-6.06,3.08-9.44,3.08Zm6.98-75.69c-3.17,0-6.24.99-8.85,2.89l-25.74,18.7c-3.27,2.37-5.42,5.88-6.05,9.87-.63,3.99.33,7.98,2.7,11.25l18.7,25.74c2.37,3.27,5.88,5.42,9.87,6.05,3.99.63,7.99-.33,11.25-2.7l25.74-18.7c6.75-4.9,8.25-14.38,3.35-21.12l-18.7-25.74c-2.37-3.27-5.88-5.42-9.87-6.05-.8-.13-1.6-.19-2.4-.19Z"/>
      </g>
      <g>
        <rect id="Rectangle.7" class="cls-1" x="347.39" y="243.44" width="63.06" height="63.06" rx="15.62" ry="15.62"/>
        <path class="cls-1" d="m394.83,307h-31.82c-8.89,0-16.12-7.23-16.12-16.12v-31.82c0-8.89,7.23-16.12,16.12-16.12h31.82c8.89,0,16.12,7.23,16.12,16.12v31.82c0,8.89-7.23,16.12-16.12,16.12Zm-31.82-63.06c-8.34,0-15.12,6.78-15.12,15.12v31.82c0,8.34,6.78,15.12,15.12,15.12h31.82c8.34,0,15.12-6.78,15.12-15.12v-31.82c0-8.34-6.78-15.12-15.12-15.12h-31.82Z"/>
      </g>
      <g>
        <rect id="Rectangle.8" class="cls-1" x="423.05" y="243.44" width="63.06" height="63.06" rx="15.62" ry="15.62"/>
        <path class="cls-1" d="m470.48,307h-31.82c-8.89,0-16.12-7.23-16.12-16.12v-31.82c0-8.89,7.23-16.12,16.12-16.12h31.82c8.89,0,16.12,7.23,16.12,16.12v31.82c0,8.89-7.23,16.12-16.12,16.12Zm-31.82-63.06c-8.34,0-15.12,6.78-15.12,15.12v31.82c0,8.34,6.78,15.12,15.12,15.12h31.82c8.34,0,15.12-6.78,15.12-15.12v-31.82c0-8.34-6.78-15.12-15.12-15.12h-31.82Z"/>
      </g>
      <g>
        <rect id="Rectangle.9" class="cls-1" x="501.34" y="243.44" width="63.06" height="63.06" rx="15.62" ry="15.62"/>
        <path class="cls-1" d="m548.78,307h-31.82c-8.89,0-16.12-7.23-16.12-16.12v-31.82c0-8.89,7.23-16.12,16.12-16.12h31.82c8.89,0,16.12,7.23,16.12,16.12v31.82c0,8.89-7.23,16.12-16.12,16.12Zm-31.82-63.06c-8.34,0-15.12,6.78-15.12,15.12v31.82c0,8.34,6.78,15.12,15.12,15.12h31.82c8.34,0,15.12-6.78,15.12-15.12v-31.82c0-8.34-6.78-15.12-15.12-15.12h-31.82Z"/>
      </g>
    </g>
    <g>
      <path class="cls-1" d="m5.17,229.91c-1.26,0-2.35-.46-3.28-1.39-.93-.93-1.39-2.02-1.39-3.28v-50.1c0-1.37.45-2.54,1.35-3.53.9-.98,2.01-1.53,3.32-1.64,4.87-.49,9.87-.74,15.01-.74,8.2,0,14.31,1.55,18.33,4.63,4.02,3.09,6.03,7.48,6.03,13.16,0,3.66-1.07,6.96-3.2,9.88-2.13,2.92-4.92,5.02-8.36,6.27-.06,0-.08.03-.08.08,0,.11.05.16.16.16,2.68,1.53,4.95,4.76,6.81,9.68l4.67,12.46c.38,1.04.25,2.02-.41,2.95-.66.93-1.53,1.39-2.62,1.39h-5c-1.42,0-2.71-.41-3.85-1.23-1.15-.82-1.94-1.89-2.38-3.2l-4.1-11.81c-.77-2.3-1.69-3.85-2.79-4.67-1.09-.82-2.79-1.23-5.08-1.23h-3.44c-.44,0-.66.25-.66.74v16.73c0,1.26-.46,2.35-1.39,3.28-.93.93-2.02,1.39-3.28,1.39h-4.35Zm9.02-48.87v15.74c0,.49.22.74.66.74h3.94c3.83,0,6.75-.81,8.77-2.42,2.02-1.61,3.03-3.87,3.03-6.76,0-5.68-3.75-8.53-11.23-8.53-1.7,0-3.17.11-4.43.33-.49.11-.74.41-.74.9Z"/>
      <path class="cls-1" d="m59.79,229.91c-1.26,0-2.34-.46-3.24-1.39-.9-.93-1.35-2.02-1.35-3.28v-50.51c0-1.26.45-2.35,1.35-3.28.9-.93,1.98-1.39,3.24-1.39h6.07c1.26,0,2.34.46,3.24,1.39s1.35,2.02,1.35,3.28v50.51c0,1.26-.45,2.35-1.35,3.28s-1.98,1.39-3.24,1.39h-6.07Z"/>
      <path class="cls-1" d="m96.93,225.48l-16.56-51c-.38-1.09-.23-2.1.45-3.03.68-.93,1.6-1.39,2.75-1.39h5.49c1.37,0,2.6.42,3.69,1.27s1.8,1.93,2.13,3.24l10.74,41.9c0,.05.03.08.08.08s.08-.03.08-.08l11.07-41.9c.33-1.31,1.04-2.39,2.13-3.24,1.09-.85,2.32-1.27,3.69-1.27h5.17c1.15,0,2.06.46,2.75,1.39.68.93.83,1.94.45,3.03l-16.56,51c-.38,1.31-1.13,2.38-2.25,3.2-1.12.82-2.39,1.23-3.81,1.23h-5.41c-1.37,0-2.61-.41-3.73-1.23-1.12-.82-1.9-1.89-2.34-3.2Z"/>
      <path class="cls-1" d="m143.18,229.91c-1.26,0-2.34-.46-3.24-1.39-.9-.93-1.35-2.02-1.35-3.28v-50.51c0-1.26.45-2.35,1.35-3.28.9-.93,1.98-1.39,3.24-1.39h29.03c1.26,0,2.34.46,3.24,1.39s1.35,2.02,1.35,3.28v1.89c0,1.26-.45,2.35-1.35,3.28-.9.93-1.98,1.39-3.24,1.39h-19.02c-.44,0-.66.22-.66.66v10.82c0,.49.22.74.66.74h17.38c1.26,0,2.34.47,3.24,1.39.9.93,1.35,2.02,1.35,3.28v1.23c0,1.26-.45,2.35-1.35,3.28-.9.93-1.98,1.39-3.24,1.39h-17.38c-.44,0-.66.22-.66.66v13.28c0,.44.22.66.66.66h19.02c1.26,0,2.34.46,3.24,1.39.9.93,1.35,2.02,1.35,3.28v1.89c0,1.26-.45,2.35-1.35,3.28s-1.98,1.39-3.24,1.39h-29.03Z"/>
      <path class="cls-1" d="m193.12,229.91c-1.26,0-2.35-.46-3.28-1.39-.93-.93-1.39-2.02-1.39-3.28v-50.51c0-1.26.46-2.35,1.39-3.28.93-.93,2.02-1.39,3.28-1.39h4.02c3.12,0,5.38,1.37,6.81,4.1l17.22,32.55c0,.05.03.08.08.08s.08-.03.08-.08v-31.98c0-1.26.46-2.35,1.39-3.28s2.02-1.39,3.28-1.39h4.02c1.26,0,2.35.46,3.28,1.39s1.39,2.02,1.39,3.28v50.51c0,1.26-.46,2.35-1.39,3.28s-2.02,1.39-3.28,1.39h-4.02c-3.12,0-5.38-1.37-6.81-4.1l-17.22-32.55c0-.05-.03-.08-.08-.08s-.08.03-.08.08v31.98c0,1.26-.47,2.35-1.39,3.28-.93.93-2.02,1.39-3.28,1.39h-4.02Z"/>
      <path class="cls-1" d="m251.83,229.91c-1.26,0-2.35-.46-3.28-1.39-.93-.93-1.39-2.02-1.39-3.28v-50.51c0-1.26.46-2.35,1.39-3.28.93-.93,2.02-1.39,3.28-1.39h28.13c1.26,0,2.35.46,3.28,1.39.93.93,1.39,2.02,1.39,3.28v1.89c0,1.26-.46,2.35-1.39,3.28-.93.93-2.02,1.39-3.28,1.39h-18.12c-.49,0-.74.22-.74.66v12.22c0,.49.25.74.74.74h16.48c1.26,0,2.35.45,3.28,1.35s1.39,1.98,1.39,3.24v1.31c0,1.26-.46,2.34-1.39,3.24s-2.02,1.35-3.28,1.35h-16.48c-.49,0-.74.25-.74.74v19.11c0,1.26-.45,2.35-1.35,3.28s-1.98,1.39-3.24,1.39h-4.67Z"/>
      <path class="cls-1" d="m301.68,229.91c-1.26,0-2.34-.46-3.24-1.39-.9-.93-1.35-2.02-1.35-3.28v-50.51c0-1.26.45-2.35,1.35-3.28.9-.93,1.98-1.39,3.24-1.39h6.07c1.26,0,2.34.46,3.24,1.39.9.93,1.35,2.02,1.35,3.28v50.51c0,1.26-.45,2.35-1.35,3.28-.9.93-1.98,1.39-3.24,1.39h-6.07Z"/>
    </g>
  </g>
</svg>